<svg width="1360" height="267" viewBox="0 0 1360 267" fill="none" xmlns="http://www.w3.org/2000/svg">
<path d="M743.2 202.285C728.6 241.485 713.7 254.185 670.3 254.185H650.9C619.5 254.185 614.6 250.485 614.6 224.685V129.085H639.6C675.1 129.085 680.7 137.685 680.7 170.185H688.2V79.3848H680.7C680.7 110.385 675.8 121.185 639.2 121.185H614.5V38.5848C614.5 12.7848 619.4 9.08476 651.9 9.08476H660.9C706.5 9.08476 717.3 21.3848 733 55.3848L739.7 53.1848L725.5 0.884766H471.4V7.58476C502.1 7.58476 511.8 21.7848 495.7 71.8848L449.7 214.585L390.3 52.7848C378.3 19.8848 383.2 7.58476 409 7.58476V0.884766H318.2V7.58476C333.5 7.58476 341.4 15.7848 354.5 51.2848L364.3 77.4848L312.3 217.985L248.7 52.8848C235.6 18.4848 245 7.68477 271.1 7.68477V0.984772H16.4L0 69.9848L6.4 71.8848C25.1 29.6848 37.8 9.08476 77.4 9.08476C100.6 9.08476 107.7 16.1848 107.7 36.6848V211.885C107.7 250.785 100.2 255.585 73.3 255.585V262.285H175.4V255.585C148.5 255.585 141 250.685 141 211.885V36.6848C141 16.1848 147.4 9.08476 170.5 9.08476C193.7 9.08476 198.9 15.4848 212.7 51.2848L296.8 266.885H303.2L368.7 89.4848L435.2 266.885H441.9L506.6 68.0848C521.9 21.3848 528.3 7.58476 555.2 7.58476C570.9 7.58476 581.7 12.0848 581.7 52.7848V209.685C581.7 251.185 574.6 255.685 551.4 255.685V262.385H735L750.7 204.485L743.2 202.285ZM763.7 262.385V255.685C786.1 255.685 794 251.185 794 210.485V53.1848C794 12.0848 786.9 7.58476 763.7 7.58476V0.884766H857.5V7.58476C834.3 7.58476 826.8 12.0848 826.8 53.1848V224.685C826.8 250.485 834.6 254.185 866.1 254.185H872.5C928.2 254.185 937.9 238.085 954.4 190.685L961.9 192.885L942.8 262.385H763.7ZM1160.7 0.884766V7.58476H1174.9C1188 7.58476 1191 16.1848 1191 52.7848V209.685C1191 251.185 1183.9 255.685 1160.7 255.685V262.385H1344.3L1360 204.485L1352.5 202.285C1337.9 241.485 1323 254.185 1279.6 254.185H1260.2C1228.8 254.185 1223.9 250.485 1223.9 224.685V129.085H1248.9C1284.4 129.085 1290 137.685 1290 170.185H1297.5V79.3848H1290C1290 110.385 1285.1 121.185 1248.5 121.185H1223.8V38.5848C1223.8 12.7848 1228.7 9.08476 1261.2 9.08476H1270.2C1315.8 9.08476 1326.6 21.3848 1342.4 55.3848L1349.1 53.1848L1334.9 0.884766H1160.7Z" fill="black"/>
<path d="M1174.8 0.884766H1103.2V7.58476C1133.1 7.58476 1139.1 23.9848 1120.4 54.2848L1017.6 221.685V0.884766H972.402C919.302 0.884766 881.602 35.9848 881.602 72.9848C881.602 97.6848 898.802 111.085 918.602 111.085C931.702 111.085 944.802 105.085 954.902 94.2848L950.802 89.3848C942.202 98.6848 931.402 103.985 919.802 103.985C902.202 103.985 889.902 91.6848 889.902 72.9848C889.902 47.9848 911.202 27.7848 946.002 27.7848H984.902V262.385H1002.8L1129.5 57.6848C1156 14.6848 1163.1 7.58476 1175.1 7.58476" fill="black"/>
</svg>
